# xmcd
#
# Track frame offsets: 
#        150
#        18873
#        38771
#        65045
#        83567
#        92046
#        109734
#        130460
#        148720
#        171298
#        188366
#        205323
#        229528
#        248482
#
# Disc length: 3607 seconds
#
# Revision: 0
# Processed by: cddbd v1.5.2PL0 Copyright (c) Steve Scherf et al.
# Submitted via: ExactAudioCopyFreeDBPlugin 1.0
#
DISCID=b20e150e
DTITLE=Jerry Douglas - Traveler
DYEAR=1900
DGENRE=Bluegrass
TTITLE0=On A Monday
TTITLE1=Something You Got featuring Eric Clapton
TTITLE2=So HereWe Are
TTITLE3=The Boxer featuring Mumford and Sons and Paul Simon
TTITLE4=Duke And Cookie
TTITLE5=High Blood Presure featuring Keb 'Mo'
TTITLE6=Gone To Fortingall
TTITLE7=Right On Time featuring Marc Cohn
TTITLE8=American Tune - Spain
TTITLE9=Frozen Fields featuring Alison Krauss and Union Station
TTITLE10=King Silkie
TTITLE11=Lil' Roro featuring Bill Frisell
TTITLE12=Bounce featuring Sam Bush and Edger Mayer
TTITLE13=Pushed Too Far
EXTD=
EXTT0=
EXTT1=
EXTT2=
EXTT3=
EXTT4=
EXTT5=
EXTT6=
EXTT7=
EXTT8=
EXTT9=
EXTT10=
EXTT11=
EXTT12=
EXTT13=
PLAYORDER=
